<?xml version="1.0" standalone="no"?><!-- Generator: Gravit.io --><svg xmlns="http://www.w3.org/2000/svg" xmlns:xlink="http://www.w3.org/1999/xlink" style="isolation:isolate" viewBox="429.277 147.151 106.446 82.698" width="106.446" height="82.698"><g><path d=" M 435.701 205.861 C 435.701 205.861 409.849 156.293 482.282 149.727 C 554.714 143.161 537.609 196.963 510.884 205.087 C 484.158 213.211 492.08 227.987 467.986 227.808 C 443.892 227.63 435.701 205.861 435.701 205.861 Z " fill="rgb(249,163,108)"/><path d=" M 535.676 176.332 C 535.665 176.281 535.65 176.231 535.635 176.183 C 535.818 173.794 535.691 171.454 535.239 169.226 C 534.254 164.371 531.809 160.167 528.054 156.781 C 528.018 156.746 527.981 156.713 527.943 156.681 C 525.84 154.807 523.332 153.185 520.442 151.847 C 511.171 147.558 498.172 146.198 481.806 147.804 C 456.461 150.291 440.045 158.196 433.014 171.3 C 432.566 172.136 432.158 172.994 431.79 173.872 C 431.786 173.88 431.783 173.889 431.779 173.897 C 431.76 173.941 431.742 173.985 431.724 174.029 C 431.721 174.036 431.718 174.043 431.716 174.05 C 429.111 180.373 428.578 187.739 430.188 195.551 C 431.475 201.802 433.689 206.273 434.069 207.012 C 434.411 207.859 436.651 213.11 441.609 218.385 C 443.786 220.702 446.692 223.215 450.393 225.296 C 450.47 225.352 450.55 225.405 450.637 225.451 C 450.699 225.483 450.763 225.511 450.827 225.536 C 453.986 227.254 457.709 228.649 462.038 229.352 C 462.134 229.377 462.231 229.391 462.329 229.4 C 464.199 229.689 466.181 229.849 468.279 229.849 C 481.882 229.849 486.048 225.277 490.871 219.984 C 494.929 215.532 499.527 210.485 511.583 206.723 C 518.736 204.49 525.487 199.097 530.105 191.927 C 533.031 187.385 534.86 182.469 535.479 177.689 C 535.7 177.29 535.784 176.812 535.676 176.332 Z  M 520.305 178.862 C 520.284 177.419 519.897 176.16 519.352 175.121 C 524.312 174.274 528.449 172.358 531.358 169.597 C 531.388 169.73 531.419 169.862 531.446 169.996 C 531.791 171.697 531.908 173.455 531.823 175.236 C 529.516 175.814 524.974 177.05 520.305 178.862 Z  M 510.429 203.029 C 497.373 207.104 492.182 212.8 488.011 217.378 C 483.46 222.372 480.173 225.98 468.278 225.98 C 467.487 225.98 466.706 225.954 465.934 225.905 C 467.685 223.651 470.658 220.542 474.378 219.452 C 475.403 219.151 475.99 218.076 475.69 217.05 C 475.389 216.025 474.314 215.437 473.289 215.738 C 467.358 217.478 463.177 222.928 461.562 225.353 C 459.002 224.856 456.568 224.063 454.266 222.978 C 455.788 220.771 458.513 217.715 461.661 217.119 C 468.799 215.769 470.04 208.91 470.089 208.618 C 470.103 208.535 470.107 208.546 470.109 208.486 C 470.193 208.1 471.339 203.939 481.309 202.755 C 482.37 202.629 483.128 201.667 483.002 200.605 C 482.876 199.544 481.914 198.786 480.852 198.912 C 475.262 199.576 471.142 201.205 468.606 203.752 C 466.723 205.644 466.343 207.421 466.268 208.002 C 466.168 208.489 465.218 212.508 460.942 213.317 C 456.075 214.238 452.53 218.617 450.869 221.107 C 448.606 219.668 446.49 217.912 444.528 215.841 C 439.705 210.75 437.655 205.561 437.635 205.509 C 437.608 205.439 437.576 205.368 437.541 205.301 C 437.457 205.143 429.914 190.571 434.814 176.773 C 435.814 177.059 437.523 177.849 439.686 180.011 C 440.362 180.688 440.95 181.311 441.468 181.861 C 444.252 184.818 445.879 186.307 450.624 186.307 C 451.268 186.307 451.97 186.279 452.741 186.224 C 453.807 186.148 454.609 185.222 454.533 184.156 C 454.456 183.091 453.529 182.288 452.465 182.364 C 447.585 182.712 447.017 182.109 444.285 179.208 C 443.748 178.638 443.14 177.992 442.422 177.275 C 440.061 174.914 437.968 173.77 436.375 173.225 C 436.396 173.185 436.416 173.145 436.438 173.105 C 438.52 169.233 441.564 165.861 445.543 162.987 C 445.611 162.948 445.679 162.906 445.744 162.859 C 445.796 162.82 450.98 159.068 454.451 161.809 C 454.745 162.04 454.858 162.216 454.866 162.296 C 454.923 162.863 453.724 164.281 453.008 165.128 C 451.599 166.795 450.142 168.519 450.328 170.604 C 450.427 171.711 450.976 172.684 451.96 173.498 C 456.46 177.217 459.864 174.052 463.156 170.991 C 464.172 170.046 465.223 169.069 466.442 168.093 C 467.418 167.312 468.268 166.961 468.658 167.18 C 469.607 167.71 470.634 170.957 469.947 176.515 C 469.816 177.576 470.569 178.542 471.63 178.673 C 471.71 178.683 471.79 178.688 471.869 178.688 C 472.832 178.688 473.666 177.97 473.787 176.99 C 473.979 175.439 474.059 173.984 474.035 172.641 C 474.366 171.865 475.583 169.497 478.142 169.392 C 479.21 169.348 480.039 168.446 479.995 167.379 C 479.951 166.311 479.051 165.477 477.982 165.525 C 475.938 165.61 474.379 166.397 473.215 167.38 C 472.624 165.692 471.725 164.461 470.545 163.801 C 469.219 163.061 467.011 162.68 464.024 165.072 C 462.693 166.137 461.539 167.21 460.521 168.157 C 456.782 171.633 456.098 171.898 454.425 170.515 C 454.216 170.343 454.183 170.257 454.182 170.259 C 454.142 169.781 455.327 168.38 455.963 167.626 C 457.358 165.977 458.938 164.108 458.716 161.909 C 458.595 160.71 457.967 159.655 456.849 158.771 C 456.303 158.34 455.743 157.999 455.177 157.732 C 462.434 154.742 471.445 152.709 482.183 151.655 C 501.046 149.804 515.301 152.138 523.602 158.151 C 521.047 160.047 516.112 163.285 510.739 164.549 C 509.706 164.792 508.705 165.125 507.74 165.519 C 506.319 165.396 500.752 164.575 495.758 163.785 C 494.705 163.618 493.712 164.338 493.545 165.393 C 493.378 166.449 494.098 167.44 495.154 167.607 C 498.085 168.071 500.358 168.421 502.133 168.683 C 497.842 171.782 495.079 175.346 494.902 175.578 C 494.254 176.426 494.415 177.638 495.263 178.288 C 495.614 178.557 496.027 178.687 496.438 178.687 C 497.019 178.687 497.594 178.426 497.975 177.93 C 498.027 177.862 502.633 171.938 508.835 169.253 C 508.854 169.245 508.873 169.237 508.891 169.229 C 509.774 168.85 510.688 168.537 511.626 168.316 C 518.234 166.762 524.036 162.729 526.597 160.745 C 527.961 162.168 529.07 163.741 529.913 165.46 C 527.543 168.52 523.389 170.62 518.111 171.407 C 517.164 171.548 516.267 171.724 515.41 171.924 C 515.379 171.929 515.348 171.938 515.317 171.945 C 505.733 174.207 501.761 179.745 501.583 180.001 C 501.57 180.019 501.558 180.037 501.546 180.055 C 499.771 182.791 493.974 189.661 488.538 188.623 C 487.489 188.423 486.475 189.111 486.275 190.16 C 486.074 191.209 486.763 192.223 487.812 192.424 C 488.448 192.545 489.075 192.602 489.695 192.602 C 497.736 192.6 504.208 183.049 504.764 182.205 C 505.037 181.834 508.074 177.899 515.264 175.946 C 515.955 176.69 516.92 178.241 516.166 180.627 C 512.907 182.162 509.904 183.98 507.93 186.049 C 507.193 186.823 507.221 188.047 507.995 188.785 C 508.369 189.142 508.85 189.32 509.33 189.32 C 509.84 189.32 510.35 189.119 510.73 188.72 C 515.067 184.172 526 180.801 531.275 179.381 C 529.055 189.697 520.673 199.832 510.429 203.029 Z " fill="rgb(242,102,40)"/><path d=" M 467.009 193.951 C 466.014 193.563 464.892 194.056 464.504 195.051 C 463.301 198.136 459.998 199.948 459.949 199.975 C 459.008 200.476 458.651 201.645 459.149 202.587 C 459.497 203.243 460.167 203.617 460.861 203.617 C 461.166 203.617 461.476 203.545 461.765 203.392 C 461.952 203.293 466.373 200.912 468.109 196.457 C 468.497 195.461 468.005 194.339 467.009 193.951 Z " fill="rgb(242,102,40)"/></g></svg>