<?xml version="1.0" standalone="no"?><!-- Generator: Gravit.io --><svg xmlns="http://www.w3.org/2000/svg" xmlns:xlink="http://www.w3.org/1999/xlink" style="isolation:isolate" viewBox="838.657 135.395 88.687 106.21" width="88.687" height="106.21"><g><path d=" M 882.585 178.75 L 854.373 138.921 L 847.32 144.937 L 847.32 156.554 L 871.591 191.819 L 872.835 194.723 L 865.99 203.851 L 853.336 203.851 L 841.512 215.053 L 842.964 230.611 L 853.336 238.908 L 869.724 236.834 L 877.399 224.18 L 874.91 213.393 L 873.665 207.585 L 879.681 200.947 L 882.585 199.494 L 886.734 202.399 L 891.505 208.414 L 891.505 211.941 L 888.808 220.446 L 888.808 225.632 L 891.505 231.648 L 894.617 234.552 L 898.351 236.834 L 903.537 238.908 L 908.93 238.908 L 913.494 236.834 L 918.68 235.382 L 922.621 230.611 L 924.903 224.18 L 925.111 217.749 L 922.207 211.941 L 918.265 207.585 L 911.834 203.851 L 904.367 203.851 L 899.595 203.228 L 893.58 194.723 L 896.484 187.463 L 918.887 156.554 L 919.302 146.804 L 915.568 140.581 L 912.664 138.921 L 882.585 178.75 Z " fill="rgb(249,163,108)" vector-effect="non-scaling-stroke" stroke-width="1" stroke="rgb(0,0,0)" stroke-linejoin="miter" stroke-linecap="square" stroke-miterlimit="3"/><g><path d=" M 923.653 209.536 C 918.633 202.366 909.706 199.256 901.43 201.604 L 895.426 193.028 C 895.468 192.978 895.509 192.926 895.546 192.872 L 918.977 159.41 C 921.455 155.871 922.407 151.579 921.657 147.324 C 920.907 143.069 918.545 139.361 915.006 136.884 C 914.986 136.87 914.966 136.856 914.946 136.843 L 913.485 135.818 C 912.978 135.463 912.35 135.323 911.739 135.43 C 911.129 135.538 910.587 135.883 910.231 136.391 L 883 175.281 L 855.769 136.391 C 855.414 135.884 854.871 135.538 854.261 135.431 C 853.651 135.323 853.023 135.463 852.516 135.818 L 851.057 136.841 C 851.035 136.855 851.013 136.87 850.992 136.885 C 847.454 139.362 845.092 143.07 844.342 147.325 C 843.592 151.58 844.544 155.872 847.021 159.411 L 870.453 192.873 C 870.491 192.927 870.531 192.979 870.573 193.028 L 864.569 201.603 C 856.293 199.256 847.367 202.366 842.347 209.534 C 839.225 213.993 838.026 219.4 838.972 224.761 C 839.917 230.121 842.894 234.793 847.353 237.914 C 850.817 240.34 854.855 241.605 858.998 241.605 C 860.187 241.605 861.384 241.501 862.579 241.29 C 867.939 240.346 872.611 237.369 875.732 232.91 C 880.751 225.744 880.62 216.292 875.586 209.317 L 879.426 203.833 L 883 201.446 L 886.573 203.833 L 890.413 209.317 C 885.38 216.292 885.249 225.744 890.266 232.909 C 894.225 238.565 900.557 241.593 906.987 241.593 C 911.023 241.592 915.098 240.4 918.647 237.915 C 923.106 234.793 926.083 230.121 927.028 224.761 C 927.974 219.4 926.775 213.993 923.653 209.536 Z  M 850.847 156.731 C 849.084 154.215 848.408 151.161 848.941 148.135 C 849.447 145.265 850.984 142.745 853.288 140.99 L 880.149 179.352 L 873.418 188.965 L 850.847 156.731 Z  M 881.729 196.678 C 881.718 196.685 881.708 196.692 881.698 196.699 L 876.467 200.193 C 876.226 200.355 876.017 200.559 875.851 200.796 L 870.764 208.062 C 870.149 208.939 870.211 210.123 870.913 210.932 C 875.641 216.378 876.05 224.314 871.907 230.231 C 869.5 233.669 865.9 235.963 861.768 236.691 C 857.636 237.419 853.468 236.495 850.031 234.088 C 846.594 231.682 844.299 228.081 843.57 223.949 C 842.841 219.817 843.765 215.649 846.172 212.213 C 849.185 207.909 854.025 205.503 859.031 205.503 C 860.909 205.503 862.811 205.841 864.648 206.546 C 865.649 206.929 866.782 206.583 867.397 205.705 L 912.711 140.99 C 915.015 142.746 916.552 145.265 917.058 148.135 C 917.591 151.161 916.914 154.214 915.151 156.731 L 891.972 189.835 L 881.729 196.678 Z  M 922.429 223.95 C 921.7 228.081 919.406 231.683 915.969 234.089 C 908.872 239.056 899.058 237.326 894.091 230.231 C 889.949 224.315 890.358 216.379 895.086 210.932 C 895.788 210.123 895.85 208.94 895.235 208.063 L 890.147 200.796 C 889.981 200.559 889.772 200.354 889.532 200.194 L 887.203 198.638 L 891.597 195.702 L 898.601 205.707 C 899.216 206.585 900.35 206.932 901.35 206.548 C 908.084 203.965 915.682 206.295 919.827 212.215 C 922.234 215.651 923.158 219.818 922.429 223.95 Z " fill="rgb(242,102,40)"/></g><g><path d=" M 915.654 215.135 C 912.297 210.343 905.666 209.174 900.872 212.529 C 900.872 212.529 900.872 212.53 900.872 212.53 C 896.08 215.885 894.911 222.515 898.266 227.309 C 900.329 230.254 903.627 231.83 906.975 231.83 C 909.076 231.83 911.197 231.209 913.044 229.915 C 915.368 228.291 916.918 225.858 917.411 223.067 C 917.904 220.275 917.28 217.458 915.654 215.135 Z  M 912.812 222.255 C 912.536 223.818 911.668 225.179 910.367 226.09 C 907.684 227.969 903.971 227.314 902.092 224.631 C 900.213 221.947 900.867 218.234 903.55 216.356 C 906.235 214.476 909.948 215.131 911.828 217.814 C 912.738 219.115 913.088 220.692 912.812 222.255 Z " fill="rgb(242,102,40)"/></g><g><path d=" M 865.618 213.177 C 860.824 209.821 854.193 210.99 850.836 215.783 C 849.21 218.106 848.586 220.922 849.079 223.714 C 849.572 226.506 851.122 228.938 853.444 230.562 C 855.293 231.856 857.414 232.478 859.516 232.478 C 862.863 232.478 866.161 230.901 868.224 227.957 C 868.224 227.957 868.224 227.956 868.224 227.956 C 871.579 223.163 870.41 216.533 865.618 213.177 Z  M 864.398 225.278 C 862.518 227.962 858.806 228.616 856.122 226.736 C 854.821 225.827 853.954 224.465 853.678 222.902 C 853.402 221.339 853.751 219.762 854.662 218.462 C 855.816 216.813 857.663 215.93 859.539 215.93 C 860.716 215.93 861.904 216.278 862.939 217.002 C 865.622 218.881 866.277 222.594 864.398 225.278 Z " fill="rgb(242,102,40)"/></g><path d=" M 879.881 191.968 C 879.881 190.802 880.827 189.855 881.994 189.855 C 883.16 189.855 884.107 190.802 884.107 191.968 C 884.107 193.134 883.16 194.081 881.994 194.081 C 880.827 194.081 879.881 193.134 879.881 191.968 Z " fill="rgb(242,102,40)"/><path d=" M 907.393 158.254 C 906.336 157.514 904.88 157.771 904.141 158.827 L 890.709 178.009 C 889.97 179.065 890.226 180.521 891.283 181.261 C 891.691 181.547 892.158 181.683 892.62 181.683 C 893.356 181.683 894.081 181.336 894.535 180.687 L 907.966 161.506 C 908.706 160.45 908.449 158.994 907.393 158.254 Z " fill="rgb(242,102,40)"/><path d=" M 869.083 169.146 L 862.435 159.651 C 861.695 158.594 860.239 158.337 859.183 159.077 C 858.126 159.817 857.869 161.272 858.609 162.329 L 865.258 171.824 C 865.712 172.473 866.437 172.82 867.173 172.82 C 867.635 172.82 868.102 172.683 868.51 172.398 C 869.566 171.658 869.823 170.202 869.083 169.146 Z " fill="rgb(242,102,40)"/></g></svg>